<svg width="40" height="40" viewBox="0 0 40 40" fill="none" xmlns="http://www.w3.org/2000/svg">
<path d="M36.351 32.4349L25.5 36.2709V3.93994L36.351 6.24194V32.4349Z" fill="#A7A9AC"/>
<path d="M13.627 29.253L21.75 20.312C21.991 20.071 22.129 19.732 22.129 19.378C22.129 19.024 21.991 18.685 21.75 18.444L13.627 9.50104C13.281 9.15304 12.774 9.06103 12.341 9.26303C11.905 9.46603 11.624 9.92504 11.624 10.434V13.627H3.87899C3.22099 13.627 2.68799 14.199 2.68799 14.904V23.847C2.68799 24.552 3.22099 25.123 3.87899 25.123H11.624V28.317C11.624 28.826 11.905 29.286 12.34 29.489C12.774 29.693 13.28 29.601 13.627 29.253V29.253Z" fill="#A7A9AC"/>
<path d="M13.627 29.253L21.75 20.312C21.991 20.071 22.129 19.732 22.129 19.378C22.129 19.024 21.991 18.685 21.75 18.444L13.627 9.50104C13.281 9.15304 12.774 9.06103 12.341 9.26303C11.905 9.46603 11.624 9.92504 11.624 10.434V13.627H3.87899C3.22099 13.627 2.68799 14.199 2.68799 14.904V23.847C2.68799 24.552 3.22099 25.123 3.87899 25.123H11.624V28.317C11.624 28.826 11.905 29.286 12.34 29.489C12.774 29.693 13.28 29.601 13.627 29.253V29.253Z" fill="#A7A9AC"/>
<path d="M24.166 6.224H22.878C21.098 6.224 19.655 7.666 19.655 9.447V13.428" stroke="#A7A9AC" stroke-miterlimit="10" stroke-linecap="round" stroke-linejoin="round"/>
<path d="M19.655 25.495V29.228C19.655 31.008 21.097 32.451 22.878 32.451H24.166" stroke="#A7A9AC" stroke-miterlimit="10" stroke-linecap="round" stroke-linejoin="round"/>
</svg>
